<svg width="148" height="148" viewBox="0 0 148 148" fill="none" xmlns="http://www.w3.org/2000/svg">
<rect width="148" height="148" fill="#292933"/>
<path d="M82.0937 34.6761L75.2399 28L69.4151 112.212L75.4762 116.768L92.7289 45.0612L82.0937 34.6761Z" fill="white"/>
<path d="M52.0787 50.501H55.6238L48.061 73.002L32.2264 72.0129L52.0787 50.501Z" fill="white"/>
<path d="M32.2264 71.7656L48.2973 72.7547L57.7508 95.7502L60.3506 104.157L32.2264 71.7656Z" fill="#838399"/>
<path d="M55.6238 50.749L48.061 72.7555L57.9872 96.4928L60.5358 104.646L55.6238 50.749Z" fill="white"/>
<path d="M103.364 62.3689V56.4346L118.489 72.754H102.891L103.364 62.3689Z" fill="white"/>
<path d="M103.364 56.4346L102.891 72.5067L86.1115 105.146L103.364 56.4346Z" fill="#838399"/>
<path d="M119.281 85.2348L113.401 94.3188L92.3396 106.724L119.281 85.2348Z" fill="#838399"/>
<path d="M118.253 72.7546L102.655 72.5073L86.1114 105.146L118.253 72.7546Z" fill="#838399"/>
<path d="M122.169 100.329L113.264 94.2286L92.3396 106.724L122.169 100.329Z" fill="#838399"/>
<path d="M30.7896 88.1101L28.719 84.6893L25.6942 99.8733L34.6856 93.9159L30.7896 88.1101Z" fill="white"/>
<path d="M28.719 84.6899L34.5994 93.7739L55.6604 106.179L28.719 84.6899Z" fill="#838399"/>
<path d="M25.8305 99.7832L34.7356 93.6832L55.6604 106.179L25.8305 99.7832Z" fill="#838399"/>
<path d="M67.6771 34.4289L75.2399 28L69.3314 112.564L68.3861 46.5448L67.6771 34.4289Z" fill="#838399"/>
<path d="M117.21 88.6555L119.281 85.2347L122.306 100.419L113.314 94.4613L117.21 88.6555Z" fill="white"/>
</svg>
