<svg xmlns="http://www.w3.org/2000/svg"  viewBox="0 0 48 48" width="48px" height="48px"><linearGradient id="SVGID_1_" x1="37.972" x2="10.028" y1="10.028" y2="37.972" gradientUnits="userSpaceOnUse"><stop offset="0" stop-color="#6560fe"/><stop offset=".033" stop-color="#6f6afe"/><stop offset=".197" stop-color="#9a97fe"/><stop offset=".362" stop-color="#bfbdff"/><stop offset=".525" stop-color="#dbdaff"/><stop offset=".687" stop-color="#efeeff"/><stop offset=".846" stop-color="#fbfbff"/><stop offset="1" stop-color="#fff"/></linearGradient><path fill="url(#SVGID_1_)" d="M39.231,35.5H8.769C7.239,35.5,6,34.356,6,32.944V15.056C6,13.644,7.239,12.5,8.769,12.5h30.462	c1.53,0,2.769,1.144,2.769,2.556v17.889C42,34.356,40.761,35.5,39.231,35.5z"/><path fill="none" stroke="#8251fe" stroke-linecap="round" stroke-linejoin="round" stroke-miterlimit="10" stroke-width="3" d="M35.123,12.5h4.531c1.572,0,2.846,1.144,2.846,2.556v17.889c0,1.412-1.274,2.556-2.846,2.556H18.782"/><path fill="none" stroke="#8251fe" stroke-linecap="round" stroke-linejoin="round" stroke-miterlimit="10" stroke-width="3" d="M11.426,35.5H8.346c-1.573,0-2.846-1.144-2.846-2.556V15.056c0-1.412,1.274-2.556,2.846-2.556h17.466"/><path id="Stripe_Logo_1_" fill="#8251fe" d="M35.123,23.587c0.06-0.966,0.322-1.42,0.818-1.42c0.488,0,0.74,0.461,0.775,1.42H35.123z M38.745,24.161c0-1.079-0.235-1.933-0.697-2.533c-0.47-0.61-1.176-0.922-2.072-0.922c-1.836,0-2.977,1.358-2.977,3.535	c0,1.218,0.304,2.133,0.905,2.716c0.54,0.523,1.315,0.783,2.315,0.783c0.922,0,1.776-0.217,2.315-0.575l-0.235-1.48	c-0.531,0.287-1.149,0.444-1.846,0.444c-0.418,0-0.705-0.087-0.914-0.269c-0.227-0.192-0.357-0.505-0.401-0.949h3.578	C38.727,24.806,38.745,24.318,38.745,24.161z M30.11,25.623c-0.174,0.331-0.444,0.505-0.757,0.505c-0.217,0-0.409-0.043-0.583-0.13	v-3.221c0.366-0.383,0.697-0.426,0.818-0.426c0.548,0,0.818,0.592,0.818,1.749C30.406,24.761,30.309,25.275,30.11,25.623z M31.903,21.445c-0.383-0.496-0.914-0.74-1.592-0.74c-0.627,0-1.176,0.261-1.689,0.81l-0.113-0.68h-1.898v9.28l2.159-0.357v-2.177	c0.331,0.105,0.67,0.157,0.974,0.157c0.54,0,1.323-0.139,1.933-0.8c0.583-0.635,0.879-1.619,0.879-2.917	C32.556,22.873,32.337,22.003,31.903,21.445z M23.593,20.835h2.167v6.773h-2.167V20.835z M24.681,20.165	c0.627,0,1.131-0.513,1.131-1.141c0-0.635-0.505-1.141-1.131-1.141c-0.635,0-1.141,0.505-1.141,1.141	C23.54,19.652,24.046,20.165,24.681,20.165z M22.661,20.743c-0.61,0-1.096,0.32-1.288,0.894l-0.13-0.8h-1.889v6.773h2.159v-4.397	c0.269-0.331,0.653-0.45,1.176-0.45c0.113,0,0.235,0,0.383,0.025v-1.993C22.922,20.76,22.792,20.743,22.661,20.743z M18.52,22.437	l0.261-1.602h-1.379V18.89l-1.854,0.306l-0.268,1.639l-0.65,0.106l-0.244,1.496h0.893v3.142c0,0.818,0.209,1.385,0.635,1.732	c0.357,0.287,0.87,0.426,1.592,0.426c0.558,0,0.897-0.095,1.131-0.157v-1.697c-0.13,0.035-0.426,0.095-0.627,0.095	c-0.426,0-0.61-0.217-0.61-0.714v-2.83h1.119V22.437z M12.337,23.386c-0.635-0.235-0.984-0.418-0.984-0.705	c0-0.244,0.2-0.383,0.558-0.383c0.653,0,1.323,0.252,1.784,0.479l0.261-1.61c-0.366-0.174-1.114-0.461-2.15-0.461	c-0.732,0-1.34,0.192-1.776,0.548c-0.453,0.374-0.688,0.914-0.688,1.567c0,1.184,0.722,1.689,1.898,2.115	c0.757,0.269,1.009,0.461,1.009,0.757c0,0.287-0.244,0.453-0.688,0.453c-0.548,0-1.454-0.269-2.045-0.618l-0.261,1.627	c0.505,0.287,1.445,0.583,2.419,0.583c0.775,0,1.42-0.182,1.854-0.531c0.488-0.383,0.74-0.949,0.74-1.68	C14.27,24.318,13.53,23.812,12.337,23.386L12.337,23.386z"/></svg>